# File created by Blade
# Date/Time:  Thu Jan 22 19:18:16 2015
# Frame Rate: 120.000 fps
#------------------------------------------------------
:FULLY-SPECIFIED
:DEGREES
677
root 2.254185 32.119444 -7.004193 99.563764 -3.106063 5.592804
RightUpLeg -103.664374 -23.154811 -5.912162
RightLeg 2.062965 -0.000000 -0.000000
RightFoot -3.437800 -4.817131 17.473976
RightToeBase 4.984583 -0.000000 -0.000000
LeftUpLeg -105.262686 10.933033 0.314516
LeftLeg 3.772497 -0.000000 -0.000000
LeftFoot -1.746146 5.435083 -26.183848
LeftToeBase 8.639751 -0.000000 -0.000000
Spine 40.967046 -3.661663 -2.637264
RightShoulder 1.893777 23.757257 -36.486355
RightArm 54.390363 26.559345 51.829214
RightForeArm -40.847104 -0.000000 58.441863
RightHand 12.793561 -0.000000 -27.239164
RightHandThumb1 -24.326973 -0.000000 -32.862282
LeftShoulder -0.803981 -35.608170 48.337913
LeftArm 34.805718 -21.191333 -52.272135
LeftForeArm 51.810911 -0.000000 63.197661
LeftHand -7.303504 0.000000 23.500837
LeftHandThumb1 -26.253704 0.000000 33.147579
Head -55.072683 -0.204472 4.007045
678
root 2.235354 32.118626 -6.987061 99.875955 -2.998241 5.529472
RightUpLeg -103.878359 -23.143568 -5.865967
RightLeg 2.067078 -0.000000 -0.000000
RightFoot -3.539455 -4.794451 17.603911
RightToeBase 5.103814 -0.000000 -0.000000
LeftUpLeg -105.677003 11.053689 0.420237
LeftLeg 4.040022 -0.000000 -0.000000
LeftFoot -1.903409 5.480106 -26.158940
LeftToeBase 8.555830 -0.000000 -0.000000
Spine 41.137694 -3.687331 -2.760266
RightShoulder 1.964838 23.850616 -36.551603
RightArm 54.288421 27.112920 52.263793
RightForeArm -41.112839 0.000000 58.985908
RightHand 13.030702 -0.000000 -27.500563
RightHandThumb1 -24.326973 -0.000000 -32.862282
LeftShoulder -0.782113 -35.405602 48.303731
LeftArm 34.545490 -21.846860 -51.753426
LeftForeArm 51.682864 -0.000000 63.995276
LeftHand -7.467097 0.000000 23.464001
LeftHandThumb1 -26.253704 0.000000 33.147579
Head -55.290527 -0.296737 3.863612
679
root 2.219285 32.117067 -6.969223 100.165518 -2.891928 5.474299
RightUpLeg -104.082030 -23.134566 -5.791094
RightLeg 2.072150 -0.000000 -0.000000
RightFoot -3.643774 -4.732703 17.715632
RightToeBase 5.205652 -0.000000 -0.000000
LeftUpLeg -106.029023 11.164420 0.547731
LeftLeg 4.233129 -0.000000 -0.000000
LeftFoot -2.050689 5.566417 -26.153866
LeftToeBase 8.532704 -0.000000 -0.000000
Spine 41.328229 -3.658379 -2.873096
RightShoulder 2.054595 23.830940 -36.597221
RightArm 54.149649 27.804075 52.698755
RightForeArm -41.578992 -0.000000 59.620505
RightHand 13.160712 -0.000000 -27.743699
RightHandThumb1 -24.326973 -0.000000 -32.862282
LeftShoulder -0.730329 -35.259134 48.301797
LeftArm 34.292147 -22.476220 -51.240952
LeftForeArm 51.739679 -0.000000 64.772674
LeftHand -7.430879 -0.000000 23.710171
LeftHandThumb1 -26.253704 0.000000 33.147579
Head -55.501913 -0.310029 3.698076
680
root 2.204691 32.114934 -6.949303 100.442537 -2.774261 5.428810
RightUpLeg -104.252365 -23.129728 -5.715921
RightLeg 2.053118 -0.000000 -0.000000
RightFoot -3.751633 -4.705853 17.781882
RightToeBase 4.959807 -0.000000 -0.000000
LeftUpLeg -106.350391 11.264661 0.675035
LeftLeg 4.390670 -0.000000 -0.000000
LeftFoot -2.186740 5.624296 -26.151710
LeftToeBase 8.501673 -0.000000 -0.000000
Spine 41.547550 -3.732276 -2.974065
RightShoulder 2.098058 23.969368 -36.663762
RightArm 54.101562 28.308375 53.064513
RightForeArm -41.653886 -0.000000 60.137351
RightHand 13.364978 -0.000000 -27.973159
RightHandThumb1 -24.326973 -0.000000 -32.862282
LeftShoulder -0.690682 -35.116743 48.233341
LeftArm 33.880588 -23.077668 -50.583436
LeftForeArm 51.941241 -0.000000 65.577014
LeftHand -7.705422 -0.000000 23.712424
LeftHandThumb1 -26.253704 0.000000 33.147579
Head -55.756432 -0.339455 3.485874
681
root 2.188943 32.112548 -6.929561 100.701592 -2.644523 5.375933
RightUpLeg -104.433620 -23.081816 -5.537523
RightLeg 2.003430 -0.000000 -0.000000
RightFoot -3.813735 -4.616646 17.820723
RightToeBase 4.958638 -0.000000 -0.000000
LeftUpLeg -106.643719 11.382760 0.825708
LeftLeg 4.530746 -0.000000 -0.000000
LeftFoot -2.317578 5.698474 -26.154175
LeftToeBase 8.519888 -0.000000 -0.000000
Spine 41.767670 -3.754773 -3.047855
RightShoulder 2.161707 23.997627 -36.722466
RightArm 54.026969 28.872888 53.386140
RightForeArm -41.948618 -0.000000 60.742229
RightHand 13.096323 -0.000000 -28.349590
RightHandThumb1 -24.326973 -0.000000 -32.862282
LeftShoulder -0.633492 -34.936628 48.203902
LeftArm 33.567614 -23.736043 -50.025295
LeftForeArm 51.842497 0.000000 66.291319
LeftHand -7.868576 -0.000000 24.333626
LeftHandThumb1 -26.253704 0.000000 33.147579
Head -55.990624 -0.374815 3.381571
682
root 2.171440 32.110612 -6.909451 100.957751 -2.525952 5.317921
RightUpLeg -104.599555 -23.022029 -5.376939
RightLeg 1.932817 -0.000000 -0.000000
RightFoot -3.894510 -4.511940 17.843253
RightToeBase 5.393067 -0.000000 -0.000000
LeftUpLeg -106.907805 11.505683 0.955321
LeftLeg 4.621796 -0.000000 -0.000000
LeftFoot -2.426928 5.767825 -26.160678
LeftToeBase 8.446299 -0.000000 -0.000000
Spine 41.977966 -3.737390 -3.152155
RightShoulder 2.215393 24.043769 -36.726106
RightArm 53.928586 29.419992 53.645894
RightForeArm -42.169435 -0.000000 61.277683
RightHand 13.105536 -0.000000 -28.912759
RightHandThumb1 -24.326973 -0.000000 -32.862282
LeftShoulder -0.557499 -34.841906 48.226427
LeftArm 33.181469 -24.359173 -49.500338
LeftForeArm 52.044408 -0.000000 66.996407
LeftHand -7.760487 0.000000 24.197973
LeftHandThumb1 -26.253704 0.000000 33.147579
Head -56.204372 -0.422223 3.385331
683
root 2.153666 32.107881 -6.889747 101.159061 -2.404266 5.268801
RightUpLeg -104.694816 -22.964202 -5.287318
RightLeg 1.873524 -0.000000 -0.000000
RightFoot -3.983353 -4.521730 17.787496
RightToeBase 5.459343 -0.000000 -0.000000
LeftUpLeg -107.103000 11.622714 1.085127
LeftLeg 4.679047 -0.000000 -0.000000
LeftFoot -2.516617 5.811182 -26.173042
LeftToeBase 8.480248 -0.000000 -0.000000
Spine 42.253454 -3.824139 -3.306092
RightShoulder 2.362276 24.192169 -36.754867
RightArm 53.814227 29.982660 53.956358
RightForeArm -42.319131 -0.000000 61.895387
RightHand 13.122674 -0.000000 -29.282342
RightHandThumb1 -24.326973 -0.000000 -32.862282
LeftShoulder -0.539386 -34.367430 48.226162
LeftArm 33.059411 -25.236089 -49.024672
LeftForeArm 52.050012 -0.000000 67.655005
LeftHand -7.725486 0.000000 24.466662
LeftHandThumb1 -26.253704 0.000000 33.147579
Head -56.427151 -0.349704 3.317809
684
root 2.137884 32.106082 -6.866794 101.419939 -2.277586 5.221103
RightUpLeg -104.850852 -22.908328 -5.134362
RightLeg 1.789121 -0.000000 -0.000000
RightFoot -4.075121 -4.515870 17.729890
RightToeBase 5.764168 -0.000000 -0.000000
LeftUpLeg -107.337227 11.744041 1.226426
LeftLeg 4.713688 -0.000000 -0.000000
LeftFoot -2.607410 5.864139 -26.197447
LeftToeBase 8.507625 -0.000000 -0.000000
Spine 42.435487 -3.787341 -3.318620
RightShoulder 2.318499 24.022656 -36.807692
RightArm 53.971802 30.584222 54.309730
RightForeArm -42.390420 0.000000 62.474442
RightHand 13.020401 0.000000 -29.523491
RightHandThumb1 -24.326973 -0.000000 -32.862282
LeftShoulder -0.409106 -34.559427 48.234862
LeftArm 32.419682 -25.716812 -48.483134
LeftForeArm 52.150520 -0.000000 68.301188
LeftHand -8.035029 0.000000 25.219434
LeftHandThumb1 -26.253704 0.000000 33.147579
Head -56.650379 -0.451202 3.275472
685
root 2.120931 32.105419 -6.848193 101.609451 -2.171113 5.162176
RightUpLeg -104.942211 -22.839660 -5.081470
RightLeg 1.738588 -0.000000 -0.000000
RightFoot -4.142740 -4.568667 17.710045
RightToeBase 5.828230 -0.000000 -0.000000
LeftUpLeg -107.503901 11.875578 1.359304
LeftLeg 4.749968 -0.000000 -0.000000
LeftFoot -2.691777 5.919314 -26.255971
LeftToeBase 8.514317 -0.000000 -0.000000
Spine 42.692312 -3.757502 -3.432258
RightShoulder 2.353630 23.992989 -36.812588
RightArm 53.945749 31.161973 54.470970
RightForeArm -42.317819 -0.000000 62.972395
RightHand 13.200393 0.000000 -29.789874
RightHandThumb1 -24.326973 -0.000000 -32.862282
LeftShoulder -0.351091 -34.373138 48.242172
LeftArm 32.239468 -26.410404 -48.015405
LeftForeArm 52.281384 -0.000000 68.797088
LeftHand -8.028899 -0.000000 25.720688
LeftHandThumb1 -26.253704 0.000000 33.147579
Head -56.829681 -0.426170 3.306660
686
root 2.105248 32.106908 -6.825750 101.847949 -2.055669 5.099202
RightUpLeg -105.095103 -22.752873 -4.947654
RightLeg 1.675341 -0.000000 -0.000000
RightFoot -4.188231 -4.602901 17.653597
RightToeBase 5.901068 -0.000000 -0.000000
LeftUpLeg -107.708705 12.010828 1.490801
LeftLeg 4.772085 -0.000000 -0.000000
LeftFoot -2.760522 5.979386 -26.289023
LeftToeBase 8.509837 -0.000000 -0.000000
Spine 42.900599 -3.725499 -3.498162
RightShoulder 2.343272 23.976329 -36.847776
RightArm 53.963420 31.685675 54.685187
RightForeArm -42.329890 0.000000 63.473570
RightHand 13.348206 -0.000000 -29.911988
RightHandThumb1 -24.326973 -0.000000 -32.862282
LeftShoulder -0.337011 -34.273880 48.301142
LeftArm 31.972507 -27.046428 -47.662739
LeftForeArm 52.539112 -0.000000 69.315812
LeftHand -8.141576 -0.000000 25.983234
LeftHandThumb1 -26.253704 0.000000 33.147579
Head -57.068459 -0.443454 3.274249
687
root 2.091307 32.109123 -6.805079 102.055534 -1.962243 5.038010
RightUpLeg -105.202873 -22.687708 -4.938807
RightLeg 1.647602 -0.000000 -0.000000
RightFoot -4.253584 -4.730938 17.623543
RightToeBase 5.920739 -0.000000 -0.000000
LeftUpLeg -107.886064 12.132372 1.592155
LeftLeg 4.793500 -0.000000 -0.000000
LeftFoot -2.829265 6.033785 -26.321595
LeftToeBase 8.634364 -0.000000 -0.000000
Spine 43.120953 -3.728816 -3.598524
RightShoulder 2.324826 23.984413 -36.866001
RightArm 54.016228 32.141553 54.846032
RightForeArm -42.250846 -0.000000 63.961074
RightHand 13.479534 -0.000000 -29.801541
RightHandThumb1 -24.326973 -0.000000 -32.862282
LeftShoulder -0.263509 -34.203039 48.270935
LeftArm 31.647317 -27.690335 -47.187535
LeftForeArm 52.681745 -0.000000 69.789826
LeftHand -7.995011 -0.000000 26.826343
LeftHandThumb1 -26.253704 0.000000 33.147579
Head -57.271488 -0.451429 3.237663
688
root 2.077102 32.112896 -6.782760 102.258275 -1.863375 4.966882
RightUpLeg -105.309112 -22.608031 -4.926112
RightLeg 1.628496 -0.000000 -0.000000
RightFoot -4.305425 -4.854590 17.538983
RightToeBase 6.022421 -0.000000 -0.000000
LeftUpLeg -108.055449 12.265223 1.688015
LeftLeg 4.814257 -0.000000 -0.000000
LeftFoot -2.884145 6.064559 -26.375725
LeftToeBase 8.648144 -0.000000 -0.000000
Spine 43.353421 -3.688419 -3.691371
RightShoulder 2.301752 23.872975 -36.874513
RightArm 54.146667 32.677640 54.938402
RightForeArm -42.175118 -0.000000 64.327972
RightHand 13.553481 -0.000000 -29.825834
RightHandThumb1 -24.326973 -0.000000 -32.862282
LeftShoulder -0.248559 -34.058038 48.335115
LeftArm 31.437447 -28.364413 -46.835621
LeftForeArm 52.950266 -0.000000 70.243339
LeftHand -8.183236 0.000000 27.172011
LeftHandThumb1 -26.253704 0.000000 33.147579
Head -57.508337 -0.444182 3.227401
